<svg width="20" height="19" viewBox="0 0 20 19" fill="none" xmlns="http://www.w3.org/2000/svg">
<path d="M11.5015 2.08531V2.02531C11.5015 1.74531 11.5915 1.49531 11.7715 1.27531C11.9515 1.05531 12.1815 0.945313 12.4615 0.945312C12.7415 0.945312 12.9915 1.03531 13.2115 1.21531C13.4315 1.39531 13.5515 1.63531 13.5715 1.93531C13.5915 2.23531 13.5015 2.48531 13.3015 2.68531C13.1015 2.88531 12.8615 2.98531 12.5815 2.98531L12.4015 3.04531L12.4615 3.13531L12.4015 3.46531L12.2815 4.42531C12.3215 4.46531 12.3415 4.50531 12.3415 4.54531L12.2215 5.14531C12.1815 5.22531 12.1415 5.28531 12.1015 5.32531L12.0415 5.56531C11.9615 5.88531 11.8915 6.14531 11.8315 6.34531C11.7715 6.54531 11.7215 6.70531 11.6815 6.82531V6.94531C11.6415 7.14531 11.6115 7.30531 11.5915 7.42531C11.5715 7.54531 11.5015 7.74531 11.3815 8.02531C11.3015 8.18531 11.3015 8.44531 11.3815 8.80531L11.4415 8.86531C11.4415 8.98531 11.4915 9.12531 11.5915 9.28531C11.6915 9.44531 11.7415 9.58531 11.7415 9.70531C11.7815 10.5053 11.7215 11.1853 11.5615 11.7453L11.6815 12.1053C12.1615 12.3453 12.3015 12.6053 12.1015 12.8853L12.4015 13.0053C12.8815 13.2453 13.2215 13.4553 13.4215 13.6353C13.6215 13.8153 13.8215 14.0053 14.0215 14.2053C14.1815 14.2453 14.3015 14.3053 14.3815 14.3853L14.5615 14.4453C15.4015 15.0053 16.2415 15.6853 17.0815 16.4853L17.3215 16.6653V16.7253L17.2615 16.8453L17.4415 16.9653H17.5015C17.6215 17.0453 17.7015 17.0853 17.7415 17.0853H17.8015C17.8415 17.0853 17.8815 17.0653 17.9215 17.0253L18.0415 16.9653C18.1215 16.8853 18.2015 16.8253 18.2815 16.7853H18.5215C18.5615 16.7853 18.5615 16.8053 18.5215 16.8453L18.2815 16.9653L17.9815 17.3253H18.4015L18.8215 17.3853C18.9415 17.3453 19.0415 17.3053 19.1215 17.2653L19.4215 17.0853C19.5415 17.0453 19.6615 17.0853 19.7815 17.2053H19.8415C19.8815 17.2453 19.8615 17.3053 19.7815 17.3853L19.0615 18.0453C18.8615 18.2053 18.6815 18.3053 18.5215 18.3453L17.7415 18.8853C17.7015 18.9253 17.6615 18.9253 17.6215 18.8853L17.4415 18.6453L17.3215 18.4053L17.1715 18.1953L16.9915 17.9553L16.8415 17.7753L16.7215 17.6253L16.4815 17.4453C16.4015 17.4453 16.3215 17.4253 16.2415 17.3853L15.4615 16.7853C15.3415 16.7853 15.2015 16.7253 15.0415 16.6053C14.4415 16.0853 14.0415 15.7653 13.8415 15.6453L13.4815 15.4053L12.7615 15.2853C12.5215 15.2453 12.2015 15.1253 11.8015 14.9253L11.3215 14.6853C11.0015 14.5253 10.7815 14.4453 10.6615 14.4453L10.4215 14.3253C10.2615 14.2853 10.1415 14.2453 10.0615 14.2053L9.9415 14.0853C9.8615 14.0853 9.7815 14.1053 9.7015 14.1453L8.5015 14.7453L7.0015 15.4053C6.6015 15.7253 6.2215 15.9853 5.8615 16.1853L5.2015 16.4853L4.1815 17.2053C4.1015 17.2853 4.0215 17.2853 3.9415 17.2053L3.8215 17.3253C3.7015 17.3653 3.6215 17.3853 3.5815 17.3853L3.3415 17.5053V17.6253H3.2215L3.1015 17.8053C3.0215 17.9653 2.9415 18.0553 2.8615 18.0753C2.7815 18.0953 2.7315 18.1253 2.7115 18.1653C2.6915 18.2053 2.6715 18.2353 2.6515 18.2553L2.5315 18.3753L2.3515 18.4953L2.0815 18.4653L1.7215 18.5253L1.4815 18.5853C1.2815 18.6253 1.1215 18.5953 1.0015 18.4953C0.881499 18.3953 0.781499 18.2453 0.701499 18.0453C0.621499 17.9253 0.661499 17.8253 0.821499 17.7453L0.881499 17.6853C0.921499 17.6453 0.981499 17.6253 1.0615 17.6253H1.4215L1.9015 17.4453L2.1415 17.3853C2.1415 17.3053 2.1615 17.2453 2.2015 17.2053C2.2415 17.1653 2.3015 17.1453 2.3815 17.1453V17.0853C2.3415 17.0053 2.3215 16.9253 2.3215 16.8453C2.2815 16.7653 2.2715 16.7053 2.2915 16.6653C2.3115 16.6253 2.3315 16.6053 2.3515 16.6053H2.3815L2.4415 16.7853C2.4815 16.9853 2.5415 17.0453 2.6215 16.9653L2.6815 16.8453C2.7215 16.7653 2.7815 16.7253 2.8615 16.7253L2.9815 16.8453L3.1015 16.7253L3.0415 16.6653C3.0415 16.6253 3.0615 16.6053 3.1015 16.6053L3.3415 16.3653C3.5415 16.1253 3.7815 15.9053 4.0615 15.7053C4.6215 15.2653 5.2215 14.9253 5.8615 14.6853C6.0615 14.4853 6.2815 14.3853 6.5215 14.3853C6.6815 14.1053 6.9215 13.8053 7.2415 13.4853C7.5215 13.2853 7.7215 13.1453 7.8415 13.0653C7.9215 12.9053 8.0215 12.8253 8.1415 12.8253H8.2015L8.3215 12.7053C8.4015 12.6653 8.4615 12.6253 8.5015 12.5853V12.2853C8.5015 12.0853 8.5215 11.9253 8.5615 11.8053C8.6015 11.6853 8.7015 11.6253 8.8615 11.6253L9.1015 11.3853C9.0215 11.2253 8.9815 11.0453 8.9815 10.8453H8.9215C8.8415 10.7253 8.8015 10.6053 8.8015 10.4853C8.6815 10.2853 8.6015 10.1253 8.5615 10.0053H8.3815C8.3415 10.1253 8.2415 10.2053 8.0815 10.2453L8.0215 10.3653C7.8615 10.6453 7.7215 10.8553 7.6015 10.9953C7.4815 11.1353 7.2615 11.3053 6.9415 11.5053C6.7415 11.7053 6.6015 11.9253 6.5215 12.1653C6.4815 12.2853 6.4815 12.4053 6.5215 12.5253L6.4615 12.6453H6.5215C6.5215 12.7253 6.5415 12.7653 6.5815 12.7653H6.6415C6.7215 12.8053 6.7615 12.8553 6.7615 12.9153C6.7615 12.9753 6.7015 12.9953 6.5815 12.9753C6.4615 12.9553 6.3715 12.9153 6.3115 12.8553C6.2515 12.7953 6.2015 12.7653 6.1615 12.7653L5.9815 12.9453C5.9015 13.0653 5.8215 13.1153 5.7415 13.0953C5.6615 13.0753 5.6415 13.0453 5.6815 13.0053L5.7415 12.9453C5.7815 12.8653 5.7815 12.8253 5.7415 12.8253L5.2615 12.9453C5.2215 12.9853 5.1715 12.9853 5.1115 12.9453C5.0515 12.9053 5.0615 12.8653 5.1415 12.8253L5.4415 12.7053C5.4415 12.6653 5.4215 12.6453 5.3815 12.6453C5.2215 12.7253 5.0615 12.7453 4.9015 12.7053L4.6015 12.6453L4.5415 12.5853C4.5415 12.5453 4.5615 12.5253 4.6015 12.5253C4.7615 12.5653 4.9615 12.5453 5.2015 12.4653L5.6215 12.2853L6.1015 11.7453L6.1615 11.6253C6.3215 11.3053 6.4915 11.0153 6.6715 10.7553C6.8515 10.4953 7.0415 10.2853 7.2415 10.1253L7.3015 9.88531C7.3815 9.72531 7.4615 9.58531 7.5415 9.46531C7.6215 9.34531 7.7215 9.18531 7.8415 8.98531L8.0215 8.74531C8.1815 8.50531 8.3615 8.38531 8.5615 8.38531L8.7415 8.20531C8.7815 8.16531 8.8015 8.10531 8.8015 8.02531L8.9215 7.90531L8.8615 7.84531C8.6215 7.64531 8.5015 7.46531 8.5015 7.30531C8.4615 7.02531 8.5515 6.78531 8.7715 6.58531C8.9915 6.38531 9.2115 6.29531 9.4315 6.31531C9.6515 6.33531 9.8215 6.40531 9.9415 6.52531L10.0615 6.64531C10.1015 6.64531 10.1215 6.66531 10.1215 6.70531L10.3615 6.82531V7.00531C10.4415 7.08531 10.4815 7.14531 10.4815 7.18531C10.5615 7.06531 10.6815 6.92531 10.8415 6.76531L11.1415 5.80531C11.1415 5.64531 11.1815 5.48531 11.2615 5.32531L11.3815 5.14531V5.02531L11.5615 4.30531H11.6815L11.8615 3.58531C11.9015 3.46531 11.9015 3.32531 11.8615 3.16531L11.6215 2.56531L11.5015 2.08531Z" fill="#111111"/>
</svg>
