<svg width="19" height="19" viewBox="0 0 19 19" fill="none" xmlns="http://www.w3.org/2000/svg">
<path d="M5.70148 6.19531V3.94531C5.70148 3.34858 5.93853 2.77628 6.36049 2.35432C6.78244 1.93237 7.35474 1.69531 7.95148 1.69531H10.9515C11.5482 1.69531 12.1205 1.93237 12.5425 2.35432C12.9644 2.77628 13.2015 3.34858 13.2015 3.94531C13.2015 4.54205 12.9644 5.11435 12.5425 5.5363C12.1205 5.95826 11.5482 6.19531 10.9515 6.19531H1.20148V14.4453C1.20148 15.4399 1.59657 16.3937 2.29983 17.097C3.00309 17.8002 3.95692 18.1953 4.95148 18.1953H13.9515C14.946 18.1953 15.8999 17.8002 16.6031 17.097C17.3064 16.3937 17.7015 15.4399 17.7015 14.4453V6.19531H14.9515" stroke="#111111" stroke-width="1.5"/>
</svg>
