<svg width="10" height="14" viewBox="0 0 10 14" fill="none" xmlns="http://www.w3.org/2000/svg">
<path fill-rule="evenodd" clip-rule="evenodd" d="M0.263977 4.79004C0.263977 3.54684 0.757837 2.35455 1.63691 1.47548C2.51599 0.596399 3.70827 0.102539 4.95148 0.102539C6.19468 0.102539 7.38696 0.596399 8.26604 1.47548C9.14512 2.35455 9.63898 3.54684 9.63898 4.79004C9.63898 5.54316 9.39835 6.40004 9.05523 7.24504C8.70835 8.09754 8.24148 8.97441 7.75523 9.77941C7.31149 10.5131 6.83023 11.2234 6.31335 11.9075C5.88335 12.4732 5.49085 12.9275 5.24398 13.1244C5.16091 13.1907 5.05777 13.2269 4.95148 13.2269C4.84518 13.2269 4.74204 13.1907 4.65898 13.1244C4.4121 12.9275 4.0196 12.4732 3.5896 11.9075C3.07294 11.2234 2.59188 10.5131 2.14835 9.77941C1.66085 8.97441 1.1946 8.09754 0.848352 7.24441C0.504602 6.40004 0.263977 5.54316 0.263977 4.79004ZM4.95148 6.82066C5.4902 6.82066 6.00685 6.60666 6.38779 6.22572C6.76872 5.84479 6.98273 5.32814 6.98273 4.78941C6.98273 4.25069 6.76872 3.73404 6.38779 3.3531C6.00685 2.97217 5.4902 2.75816 4.95148 2.75816C4.41276 2.75816 3.8961 2.97217 3.51517 3.3531C3.13423 3.73404 2.92023 4.25069 2.92023 4.78941C2.92023 5.32814 3.13423 5.84479 3.51517 6.22572C3.8961 6.60666 4.41276 6.82066 4.95148 6.82066Z" fill="white"/>
</svg>
