<svg width="19" height="19" viewBox="0 0 19 19" fill="none" xmlns="http://www.w3.org/2000/svg">
<path d="M11.4135 14.2413C10.3675 14.8677 9.17068 15.1975 7.95148 15.1953C7.06488 15.1965 6.18678 15.0225 5.36766 14.6832C4.54854 14.3439 3.80456 13.8461 3.17848 13.2183C2.55071 12.5922 2.05288 11.8483 1.7136 11.0291C1.37431 10.21 1.20027 9.33192 1.20148 8.44532C1.20148 6.58132 1.95648 4.89432 3.17848 3.67232C3.80456 3.04455 4.54854 2.54671 5.36766 2.20743C6.18678 1.86815 7.06488 1.69411 7.95148 1.69532C9.81548 1.69532 11.5025 2.45032 12.7245 3.67232C13.3523 4.2984 13.8501 5.04238 14.1894 5.8615C14.5287 6.68062 14.7027 7.55872 14.7015 8.44532C14.7032 9.64272 14.3853 10.8189 13.7805 11.8523C13.2635 12.7343 13.3465 13.8403 14.0695 14.5633L17.9225 18.4163" stroke="#111111" stroke-width="1.5"/>
</svg>
