<svg width="25" height="25" viewBox="0 0 25 25" fill="none" xmlns="http://www.w3.org/2000/svg">
<g clip-path="url(#clip0_4_234)">
<path d="M17.2455 4.69533C18.5695 4.69533 19.8135 5.21133 20.7495 6.14633C21.6777 7.07624 22.199 8.33645 22.199 9.65033C22.199 10.9642 21.6777 12.2244 20.7495 13.1543L12.4515 21.4533L4.1525 13.1543C3.22461 12.2245 2.70349 10.9645 2.70349 9.65083C2.70349 8.33719 3.22461 7.0772 4.1525 6.14733C4.61153 5.68563 5.15758 5.31956 5.75905 5.07033C6.36051 4.82109 7.00544 4.69363 7.6565 4.69533C8.9805 4.69533 10.2245 5.21133 11.1605 6.14633L11.9205 6.90633L12.4515 7.43733L12.9815 6.90633L13.7415 6.14633C14.2007 5.68494 14.7468 5.31915 15.3483 5.0701C15.9497 4.82104 16.5945 4.69367 17.2455 4.69533" stroke="#111111" stroke-width="1.5"/>
</g>
<defs>
<clipPath id="clip0_4_234">
<rect width="24" height="24" fill="white" transform="translate(0.451477 0.945312)"/>
</clipPath>
</defs>
</svg>
